<svg viewBox="0 0 32 32" fill="none" xmlns="http://www.w3.org/2000/svg">
  <path d="M16 3C8.82 3 3 8.82 3 16c0 2.3.6 4.46 1.66 6.34L3 29l6.82-1.62A12.9 12.9 0 0 0 16 29c7.18 0 13-5.82 13-13S23.18 3 16 3Z" fill="#fff"/>
  <path d="M22.7 19.3c-.37-.18-2.18-1.07-2.52-1.2-.34-.12-.59-.18-.83.19-.25.37-.95 1.19-1.17 1.44-.21.24-.43.27-.8.09-.37-.19-1.56-.58-2.97-1.84-1.1-.98-1.84-2.18-2.06-2.55-.21-.37-.02-.57.16-.75.17-.16.37-.43.55-.64.19-.21.25-.37.37-.61.12-.25.06-.46-.03-.64-.09-.19-.83-2-1.14-2.74-.3-.72-.6-.62-.83-.63l-.71-.01c-.25 0-.64.09-.98.46-.34.37-1.29 1.26-1.29 3.07s1.32 3.56 1.5 3.81c.18.25 2.6 3.97 6.3 5.57.88.38 1.57.61 2.1.78.88.28 1.69.24 2.32.15.71-.11 2.18-.89 2.49-1.75.31-.86.31-1.6.21-1.75-.09-.16-.34-.25-.71-.43Z" fill="#25D366"/>
</svg>
