<svg viewBox="0 0 24 24" fill="currentColor" xmlns="http://www.w3.org/2000/svg">
  <path d="M12 2a10 10 0 0 0-3.6 19.3c-.1-.8-.1-2 .1-2.9l1.1-4.8s-.3-.6-.3-1.4c0-1.3.8-2.3 1.7-2.3.8 0 1.2.6 1.2 1.4 0 .8-.5 2.1-.8 3.2-.2 1 .5 1.7 1.4 1.7 1.7 0 2.9-2.2 2.9-4.7 0-2-1.3-3.4-3.7-3.4a4.2 4.2 0 0 0-4.4 4.2c0 .8.2 1.4.6 1.8.1.2.2.3.1.5l-.2.8c0 .3-.2.3-.5.2-1.3-.5-1.9-2-1.9-3.6 0-2.6 2.2-5.8 6.6-5.8 3.5 0 5.8 2.6 5.8 5.3 0 3.6-2 6.3-5 6.3-1 0-1.9-.5-2.2-1.1l-.6 2.4c-.2.8-.7 1.7-1.1 2.3A10 10 0 1 0 12 2Z"/>
</svg>
